<svg width="1200" height="750" viewBox="0 0 1200 750" fill="none" xmlns="http://www.w3.org/2000/svg">
  <defs>
    <linearGradient id="bg" x1="0" y1="0" x2="1" y2="1">
      <stop offset="0%" stop-color="#f8fafc" />
      <stop offset="100%" stop-color="#eef2f7" />
    </linearGradient>
    <linearGradient id="accent" x1="0" y1="0" x2="1" y2="0">
      <stop offset="0%" stop-color="#e2e8f0" />
      <stop offset="100%" stop-color="#f8fafc" />
    </linearGradient>
  </defs>
  <rect width="1200" height="750" rx="32" fill="url(#bg)" />
  <rect x="36" y="36" width="1128" height="678" rx="26" fill="#ffffff" stroke="#e4e4e7" />
  <rect x="70" y="70" width="220" height="610" rx="18" fill="#f4f4f5" />
  <rect x="96" y="110" width="168" height="22" rx="8" fill="#e4e4e7" />
  <rect x="96" y="150" width="168" height="18" rx="6" fill="#e4e4e7" />
  <rect x="96" y="186" width="168" height="18" rx="6" fill="#e4e4e7" />
  <rect x="96" y="236" width="168" height="28" rx="9" fill="#dbeafe" />
  <rect x="96" y="278" width="168" height="18" rx="6" fill="#e4e4e7" />
  <rect x="96" y="310" width="168" height="18" rx="6" fill="#e4e4e7" />

  <rect x="330" y="90" width="810" height="70" rx="16" fill="url(#accent)" />
  <rect x="360" y="112" width="160" height="18" rx="6" fill="#94a3b8" />
  <rect x="540" y="112" width="120" height="18" rx="6" fill="#cbd5f5" />
  <rect x="680" y="112" width="140" height="18" rx="6" fill="#cbd5f5" />

  <rect x="330" y="190" width="390" height="190" rx="20" fill="#ffffff" stroke="#e4e4e7" />
  <rect x="360" y="220" width="320" height="18" rx="6" fill="#e2e8f0" />
  <rect x="360" y="252" width="260" height="14" rx="5" fill="#e2e8f0" />
  <rect x="360" y="276" width="300" height="14" rx="5" fill="#e2e8f0" />
  <rect x="360" y="308" width="180" height="14" rx="5" fill="#e2e8f0" />
  <rect x="360" y="334" width="120" height="14" rx="5" fill="#e2e8f0" />

  <rect x="750" y="190" width="390" height="190" rx="20" fill="#ffffff" stroke="#e4e4e7" />
  <rect x="780" y="220" width="320" height="18" rx="6" fill="#e2e8f0" />
  <rect x="780" y="252" width="240" height="14" rx="5" fill="#e2e8f0" />
  <rect x="780" y="276" width="300" height="14" rx="5" fill="#e2e8f0" />
  <rect x="780" y="308" width="200" height="14" rx="5" fill="#e2e8f0" />
  <rect x="780" y="334" width="140" height="14" rx="5" fill="#e2e8f0" />

  <rect x="330" y="410" width="810" height="230" rx="22" fill="#ffffff" stroke="#e4e4e7" />
  <rect x="360" y="440" width="520" height="18" rx="6" fill="#e2e8f0" />
  <rect x="360" y="472" width="440" height="14" rx="5" fill="#e2e8f0" />
  <rect x="360" y="496" width="390" height="14" rx="5" fill="#e2e8f0" />
  <rect x="360" y="528" width="250" height="14" rx="5" fill="#e2e8f0" />
  <rect x="360" y="554" width="210" height="14" rx="5" fill="#e2e8f0" />
</svg>
